
<svg id="Слой_1" data-name="Слой 1" xmlns="http://www.w3.org/2000/svg" viewBox="0 0 788.76 105.46"><defs><style>.cls-1{fill:#408990;}</style></defs><rect class="cls-1" x="292.45" y="35.07" width="0.08" height="0.08"/><path class="cls-1" d="M74.49,350.37c34.9-.63,38-18.61,38.47-28.49,1-21.25-23.06-26.09-23.06-26.09s17.9-3.59,17.9-23.32-15.48-27.08-33.31-27.55H29a2.45,2.45,0,0,0-2.45,2.45v2.34A2.45,2.45,0,0,0,29,252.16H74.49s26.2,0,26.2,20.31-26.2,20.3-26.2,20.3H29a2.45,2.45,0,0,0-2.45,2.45v3A2.45,2.45,0,0,0,29,300.63H74.49s31.36-.94,31.36,21.25-31.36,21.24-31.36,21.24H29a2.45,2.45,0,0,0-2.45,2.45v2.35A2.45,2.45,0,0,0,29,350.37H74.49" transform="translate(-26.56 -244.91)"/><path class="cls-1" d="M536.27,350.37c34.9-.63,38-18.61,38.47-28.49,1-21.25-23.07-26.09-23.07-26.09s17.91-3.59,17.91-23.32-15.49-27.08-33.31-27.55H490.79a2.45,2.45,0,0,0-2.45,2.45v2.34a2.44,2.44,0,0,0,2.45,2.45h45.48s26.19,0,26.19,20.31-26.19,20.3-26.19,20.3H490.79a2.44,2.44,0,0,0-2.45,2.45v3a2.45,2.45,0,0,0,2.45,2.45h45.48s31.35-.94,31.35,21.25-31.35,21.24-31.35,21.24H490.79a2.45,2.45,0,0,0-2.45,2.45v2.35a2.45,2.45,0,0,0,2.45,2.45h45.48" transform="translate(-26.56 -244.91)"/><path class="cls-1" d="M140.77,244.92h1.89a2.58,2.58,0,0,1,2.19,1.22l35.91,57.73L217,246.13a2.59,2.59,0,0,1,2.19-1.21H221a2.58,2.58,0,0,1,2.21,3.9l-38.57,64.9v34.07a2.59,2.59,0,0,1-2.58,2.58h-2.69a2.58,2.58,0,0,1-2.58-2.58l-.05-34.17-38.24-64.81A2.58,2.58,0,0,1,140.77,244.92Z" transform="translate(-26.56 -244.91)"/><path class="cls-1" d="M408.48,244.91c-30.2,0-54.67,23.62-54.67,52.73s24.47,52.7,54.67,52.7,54.67-23.6,54.67-52.7S438.68,244.91,408.48,244.91Zm0,98.2c-26.27,0-47.55-20.35-47.55-45.47s21.28-45.48,47.55-45.48S456,272.51,456,297.64,434.75,343.11,408.48,343.11Z" transform="translate(-26.56 -244.91)"/><path class="cls-1" d="M654.62,244.91c-30.19,0-54.66,23.62-54.66,52.73s24.47,52.7,54.66,52.7,54.67-23.6,54.67-52.7S684.82,244.91,654.62,244.91Zm0,98.2c-26.27,0-47.54-20.35-47.54-45.47s21.27-45.48,47.54-45.48,47.55,20.35,47.55,45.48S680.89,343.11,654.62,343.11Z" transform="translate(-26.56 -244.91)"/><path class="cls-1" d="M737,244.92H812.8a2.53,2.53,0,0,1,2.53,2.53v2.19a2.52,2.52,0,0,1-2.53,2.52H778.89v95.68a2.53,2.53,0,0,1-2.53,2.53h-2.79a2.52,2.52,0,0,1-2.52-2.53V252.16H737a2.52,2.52,0,0,1-2.53-2.52v-2.19A2.53,2.53,0,0,1,737,244.92Z" transform="translate(-26.56 -244.91)"/><path class="cls-1" d="M248.81,247.44a2.52,2.52,0,0,1,2.53-2.52h41.53c4.43,0,35.75,2.08,35.75,35.13,0,28.25-23.47,33.67-23.47,33.67l21,32.73a2.53,2.53,0,0,1-2.13,3.89h-1.88a2.51,2.51,0,0,1-2.09-1.11L297.2,315.65H256.66v32.19a2.53,2.53,0,0,1-2.53,2.53h-2.79a2.53,2.53,0,0,1-2.53-2.53V310.21a2.53,2.53,0,0,1,2.53-2.53l46,.1s23.41-4.28,23.9-27.73c.47-22.43-22.09-28.1-29.69-27.89H251.34a2.52,2.52,0,0,1-2.53-2.52Z" transform="translate(-26.56 -244.91)"/></svg>