<?xml version="1.0" standalone="no"?>
<!DOCTYPE svg PUBLIC "-//W3C//DTD SVG 20010904//EN"
 "http://www.w3.org/TR/2001/REC-SVG-20010904/DTD/svg10.dtd">
<svg version="1.0" xmlns="http://www.w3.org/2000/svg"
 width="1024.000000pt" height="1024.000000pt" viewBox="0 0 1024.000000 1024.000000"
 preserveAspectRatio="xMidYMid meet">

<g transform="translate(0.000000,1024.000000) scale(0.100000,-0.100000)"
fill="#000000" stroke="none">
<path d="M4981 8104 c-30 -8 -79 -28 -110 -44 -31 -17 -267 -204 -526 -416
-258 -213 -733 -603 -1055 -867 -322 -264 -589 -484 -594 -488 -6 -5 12 -9 41
-9 l51 0 1013 831 c644 528 1034 842 1071 860 154 78 343 77 497 0 37 -19 335
-257 817 -652 418 -343 875 -718 1016 -834 l257 -210 46 3 c26 2 43 8 38 12
-4 4 -240 198 -523 430 -283 233 -759 624 -1058 869 -301 247 -568 458 -598
474 -111 56 -265 73 -383 41z"/>
<path d="M5050 7929 c-76 -8 -158 -37 -220 -78 -25 -16 -295 -234 -600 -486
-305 -251 -725 -597 -933 -769 l-378 -311 41 -3 41 -3 -112 -120 c-90 -96
-107 -119 -89 -119 15 0 66 41 150 120 l128 120 62 0 62 0 -112 -120 c-91 -97
-108 -120 -90 -120 15 0 66 41 150 120 l128 120 62 0 62 0 -112 -120 c-91 -97
-108 -120 -90 -120 15 0 66 41 150 120 l128 120 62 0 62 0 -112 -120 c-91 -97
-108 -120 -90 -120 15 0 66 41 150 120 l128 120 62 0 62 0 -112 -120 c-91 -97
-108 -120 -90 -120 15 0 66 41 150 120 l128 120 62 0 62 0 -112 -120 c-91 -97
-108 -120 -90 -120 15 0 66 41 150 120 l128 120 62 0 62 0 -112 -120 c-91 -97
-108 -120 -90 -120 15 0 66 41 150 120 l128 120 62 0 62 0 -112 -120 c-91 -97
-108 -120 -90 -120 15 0 66 41 150 120 l128 120 62 0 62 0 -112 -120 c-91 -97
-108 -120 -90 -120 15 0 66 41 150 120 l128 120 62 0 62 0 -112 -120 c-91 -97
-108 -120 -90 -120 15 0 66 41 150 120 l128 120 62 0 62 0 -112 -120 c-91 -97
-108 -120 -90 -120 15 0 66 41 150 120 l128 120 62 0 62 0 -112 -120 c-91 -97
-108 -120 -90 -120 15 0 66 41 150 120 l128 120 62 0 62 0 -112 -120 c-91 -97
-108 -120 -90 -120 15 0 66 41 150 120 l128 120 62 0 62 0 -112 -120 c-91 -97
-108 -120 -90 -120 15 0 66 41 150 120 l128 120 62 0 62 0 -112 -120 c-91 -97
-108 -120 -90 -120 15 0 66 41 150 120 l128 120 62 0 62 0 -112 -120 c-91 -97
-108 -120 -90 -120 15 0 66 41 150 120 l128 120 62 0 62 0 -112 -120 c-91 -97
-108 -120 -90 -120 15 0 66 41 150 120 l128 120 62 0 62 0 -112 -120 c-91 -97
-108 -120 -90 -120 15 0 66 41 150 120 l128 120 62 0 62 0 -112 -120 c-91 -97
-108 -120 -90 -120 15 0 66 41 150 120 l128 120 62 0 62 0 -112 -120 c-91 -97
-108 -120 -90 -120 15 0 66 41 150 120 l128 120 62 0 62 0 -112 -120 c-91 -97
-108 -120 -90 -120 15 0 66 41 150 120 l128 120 62 0 62 0 -112 -120 c-91 -97
-108 -120 -90 -120 15 0 65 40 149 119 70 66 137 121 150 123 18 2 -118 119
-700 598 -398 327 -820 675 -939 773 -118 98 -237 191 -265 208 -97 57 -219
81 -345 68z"/>
<path d="M7560 6235 c-13 -14 -22 -26 -19 -28 2 -1 11 -8 20 -15 13 -10 20 -8
38 11 21 23 21 24 3 40 -17 16 -20 15 -42 -8z"/>
<path d="M7271 6140 c-74 -80 -88 -100 -71 -100 13 0 58 34 115 87 83 77 92
88 77 100 -9 7 -20 13 -23 13 -3 0 -47 -45 -98 -100z"/>
<path d="M2569 6183 l-24 -28 28 24 c25 23 32 31 24 31 -2 0 -14 -12 -28 -27z"/>
<path d="M2467 6102 c-37 -31 -62 -59 -56 -61 6 -2 39 24 73 58 33 33 59 61
56 60 -3 0 -36 -26 -73 -57z"/>
<path d="M7671 6136 c-20 -21 -21 -24 -5 -30 21 -8 60 26 50 43 -10 16 -20 14
-45 -13z"/>
<path d="M7430 6095 c-50 -51 -52 -55 -29 -55 35 0 116 82 96 98 -10 9 -25 0
-67 -43z"/>
<path d="M7790 6055 c-11 -13 -9 -15 15 -15 16 0 25 5 23 12 -7 19 -24 20 -38
3z"/>
<path d="M7585 6050 c-3 -5 1 -10 10 -10 9 0 13 5 10 10 -3 6 -8 10 -10 10 -2
0 -7 -4 -10 -10z"/>
</g>
</svg>
